<mxfile host="app.diagrams.net" agent="Mozilla/5.0 (Windows NT 10.0; Win64; x64) AppleWebKit/537.36 (KHTML, like Gecko) Chrome/137.0.0.0 Safari/537.36" version="27.1.4">
  <diagram name="Página-1" id="9rKXRhQMnLUlFg-UbO_X">
    <mxGraphModel grid="1" page="1" gridSize="10" guides="1" tooltips="1" connect="1" arrows="1" fold="1" pageScale="1" pageWidth="1169" pageHeight="827" math="0" shadow="0">
      <root>
        <mxCell id="0" />
        <mxCell id="1" parent="0" />
        <mxCell id="zLq0nJhMniRumRmDmFBJ-10" value="API de Pagamento" style="shape=umlLifeline;perimeter=lifelinePerimeter;whiteSpace=wrap;html=1;container=1;dropTarget=0;collapsible=0;recursiveResize=0;outlineConnect=0;portConstraint=eastwest;newEdgeStyle={&quot;curved&quot;:0,&quot;rounded&quot;:0};fontStyle=1;strokeWidth=2;" vertex="1" parent="1">
          <mxGeometry x="1965" y="190" width="100" height="790" as="geometry" />
        </mxCell>
        <mxCell id="zLq0nJhMniRumRmDmFBJ-14" value="Sistema" style="shape=umlLifeline;perimeter=lifelinePerimeter;whiteSpace=wrap;html=1;container=1;dropTarget=0;collapsible=0;recursiveResize=0;outlineConnect=0;portConstraint=eastwest;newEdgeStyle={&quot;curved&quot;:0,&quot;rounded&quot;:0};fontStyle=1;strokeWidth=2;" vertex="1" parent="1">
          <mxGeometry x="1745" y="190" width="100" height="790" as="geometry" />
        </mxCell>
        <mxCell id="zLq0nJhMniRumRmDmFBJ-24" style="edgeStyle=orthogonalEdgeStyle;rounded=0;orthogonalLoop=1;jettySize=auto;html=1;curved=0;entryX=0;entryY=0;entryDx=0;entryDy=5;entryPerimeter=0;endArrow=block;endFill=1;fontStyle=1;strokeWidth=2;" edge="1" parent="1">
          <mxGeometry relative="1" as="geometry">
            <Array as="points">
              <mxPoint x="1645" y="265" />
              <mxPoint x="1645" y="265" />
            </Array>
            <mxPoint x="1583.9615384615386" y="265" as="sourcePoint" />
            <mxPoint x="1790" y="265" as="targetPoint" />
          </mxGeometry>
        </mxCell>
        <mxCell id="zLq0nJhMniRumRmDmFBJ-25" value="1: efetuarCompra()" style="text;html=1;align=center;verticalAlign=middle;resizable=0;points=[];autosize=1;strokeColor=none;fillColor=none;fontStyle=1" vertex="1" parent="1">
          <mxGeometry x="1630" y="238" width="120" height="30" as="geometry" />
        </mxCell>
        <mxCell id="zLq0nJhMniRumRmDmFBJ-79" value="&lt;span&gt;Usuário&lt;/span&gt;" style="shape=umlActor;verticalLabelPosition=bottom;verticalAlign=top;html=1;outlineConnect=0;fontStyle=1;strokeWidth=2;" vertex="1" parent="1">
          <mxGeometry x="1570.33" y="160" width="30" height="60" as="geometry" />
        </mxCell>
        <mxCell id="zLq0nJhMniRumRmDmFBJ-80" value="" style="endArrow=none;dashed=1;html=1;rounded=0;fontStyle=1;strokeWidth=2;" edge="1" parent="1">
          <mxGeometry width="50" height="50" relative="1" as="geometry">
            <mxPoint x="1585" y="980" as="sourcePoint" />
            <mxPoint x="1584.56" y="247.38" as="targetPoint" />
          </mxGeometry>
        </mxCell>
        <mxCell id="KLUDcfQme7VjofMpqBZG-1" value="Comprar Passagens" style="shape=umlFrame;whiteSpace=wrap;html=1;pointerEvents=0;width=130;height=30;fontStyle=1;strokeWidth=2;" vertex="1" parent="1">
          <mxGeometry x="1400" y="130" width="690" height="860" as="geometry" />
        </mxCell>
        <mxCell id="KLUDcfQme7VjofMpqBZG-9" value="" style="html=1;points=[[0,0,0,0,5],[0,1,0,0,-5],[1,0,0,0,5],[1,1,0,0,-5]];perimeter=orthogonalPerimeter;outlineConnect=0;targetShapes=umlLifeline;portConstraint=eastwest;newEdgeStyle={&quot;curved&quot;:0,&quot;rounded&quot;:0};fontStyle=1;strokeWidth=2;" vertex="1" parent="1">
          <mxGeometry x="1790" y="260" width="10" height="50" as="geometry" />
        </mxCell>
        <mxCell id="KLUDcfQme7VjofMpqBZG-17" value="[Cartão]" style="text;html=1;align=center;verticalAlign=middle;resizable=0;points=[];autosize=1;strokeColor=none;fillColor=none;fontStyle=1" vertex="1" parent="1">
          <mxGeometry x="1500.33" y="379" width="70" height="30" as="geometry" />
        </mxCell>
        <mxCell id="KLUDcfQme7VjofMpqBZG-18" value="[Pix]" style="text;html=1;align=center;verticalAlign=middle;resizable=0;points=[];autosize=1;strokeColor=none;fillColor=none;fontStyle=1" vertex="1" parent="1">
          <mxGeometry x="1510" y="461" width="50" height="30" as="geometry" />
        </mxCell>
        <mxCell id="KLUDcfQme7VjofMpqBZG-19" style="edgeStyle=orthogonalEdgeStyle;rounded=0;orthogonalLoop=1;jettySize=auto;html=1;curved=0;endArrow=block;endFill=1;fontStyle=1;strokeWidth=2;" edge="1" parent="1">
          <mxGeometry relative="1" as="geometry">
            <Array as="points">
              <mxPoint x="1590" y="378" />
            </Array>
            <mxPoint x="1590" y="378" as="sourcePoint" />
            <mxPoint x="1790" y="378" as="targetPoint" />
          </mxGeometry>
        </mxCell>
        <mxCell id="KLUDcfQme7VjofMpqBZG-20" value="4: fornecerDadosDoCartão(dados)" style="edgeLabel;html=1;align=center;verticalAlign=middle;resizable=0;points=[];fontStyle=1" connectable="0" vertex="1" parent="KLUDcfQme7VjofMpqBZG-19">
          <mxGeometry x="-0.0149" relative="1" as="geometry">
            <mxPoint y="-9" as="offset" />
          </mxGeometry>
        </mxCell>
        <mxCell id="byp8TM0r94PkajCjEqZ4-8" style="edgeStyle=orthogonalEdgeStyle;rounded=0;orthogonalLoop=1;jettySize=auto;html=1;curved=0;dashed=1;endArrow=open;endFill=0;fontStyle=1;strokeWidth=2;" edge="1" parent="1">
          <mxGeometry relative="1" as="geometry">
            <Array as="points" />
            <mxPoint x="2010" y="442" as="sourcePoint" />
            <mxPoint x="1800" y="442" as="targetPoint" />
          </mxGeometry>
        </mxCell>
        <mxCell id="byp8TM0r94PkajCjEqZ4-9" value="6: retornarPagamento(status)" style="edgeLabel;html=1;align=center;verticalAlign=middle;resizable=0;points=[];fontStyle=1" connectable="0" vertex="1" parent="byp8TM0r94PkajCjEqZ4-8">
          <mxGeometry x="0.0547" y="-1" relative="1" as="geometry">
            <mxPoint x="6" y="-8" as="offset" />
          </mxGeometry>
        </mxCell>
        <mxCell id="byp8TM0r94PkajCjEqZ4-10" style="edgeStyle=orthogonalEdgeStyle;rounded=0;orthogonalLoop=1;jettySize=auto;html=1;curved=0;dashed=1;endArrow=open;endFill=0;fontStyle=1;strokeWidth=2;" edge="1" parent="1">
          <mxGeometry relative="1" as="geometry">
            <Array as="points">
              <mxPoint x="1602.33" y="549.5" />
            </Array>
            <mxPoint x="1787" y="550" as="sourcePoint" />
            <mxPoint x="1587" y="550" as="targetPoint" />
          </mxGeometry>
        </mxCell>
        <mxCell id="byp8TM0r94PkajCjEqZ4-11" value="9: exibirQRCode(qrCode)" style="edgeLabel;html=1;align=center;verticalAlign=middle;resizable=0;points=[];fontStyle=1" connectable="0" vertex="1" parent="byp8TM0r94PkajCjEqZ4-10">
          <mxGeometry x="0.0547" y="-1" relative="1" as="geometry">
            <mxPoint x="6" y="-8" as="offset" />
          </mxGeometry>
        </mxCell>
        <mxCell id="byp8TM0r94PkajCjEqZ4-14" style="edgeStyle=orthogonalEdgeStyle;rounded=0;orthogonalLoop=1;jettySize=auto;html=1;curved=0;dashed=1;endArrow=open;endFill=0;fontStyle=1;strokeWidth=2;" edge="1" parent="1">
          <mxGeometry relative="1" as="geometry">
            <Array as="points">
              <mxPoint x="1827.6599999999999" y="530" />
            </Array>
            <mxPoint x="2012.33" y="530.5" as="sourcePoint" />
            <mxPoint x="1800" y="531" as="targetPoint" />
          </mxGeometry>
        </mxCell>
        <mxCell id="byp8TM0r94PkajCjEqZ4-15" value="8: retornarCobrança(qrCode)" style="edgeLabel;html=1;align=center;verticalAlign=middle;resizable=0;points=[];fontStyle=1" connectable="0" vertex="1" parent="byp8TM0r94PkajCjEqZ4-14">
          <mxGeometry x="0.0547" y="-1" relative="1" as="geometry">
            <mxPoint x="6" y="-8" as="offset" />
          </mxGeometry>
        </mxCell>
        <mxCell id="byp8TM0r94PkajCjEqZ4-22" value="alt" style="shape=umlFrame;whiteSpace=wrap;html=1;pointerEvents=0;width=60;height=20;fontStyle=1;strokeWidth=2;" vertex="1" parent="1">
          <mxGeometry x="1425" y="596" width="485" height="350" as="geometry" />
        </mxCell>
        <mxCell id="byp8TM0r94PkajCjEqZ4-25" style="edgeStyle=orthogonalEdgeStyle;rounded=0;orthogonalLoop=1;jettySize=auto;html=1;curved=0;dashed=1;fontStyle=1;strokeWidth=2;" edge="1" parent="1">
          <mxGeometry relative="1" as="geometry">
            <mxPoint x="1583.9615384615386" y="686.0769230769231" as="targetPoint" />
            <Array as="points">
              <mxPoint x="1645" y="686" />
              <mxPoint x="1645" y="686" />
            </Array>
            <mxPoint x="1790" y="686" as="sourcePoint" />
          </mxGeometry>
        </mxCell>
        <mxCell id="byp8TM0r94PkajCjEqZ4-26" value="&amp;nbsp;10: exibirPagamentoErro()" style="text;html=1;align=center;verticalAlign=middle;resizable=0;points=[];autosize=1;strokeColor=none;fillColor=none;fontStyle=1" vertex="1" parent="1">
          <mxGeometry x="1605.33" y="656" width="170" height="30" as="geometry" />
        </mxCell>
        <mxCell id="byp8TM0r94PkajCjEqZ4-29" value="" style="html=1;points=[[0,0,0,0,5],[0,1,0,0,-5],[1,0,0,0,5],[1,1,0,0,-5]];perimeter=orthogonalPerimeter;outlineConnect=0;targetShapes=umlLifeline;portConstraint=eastwest;newEdgeStyle={&quot;curved&quot;:0,&quot;rounded&quot;:0};fontStyle=1;strokeWidth=2;" vertex="1" parent="1">
          <mxGeometry x="2010" y="398" width="10" height="44" as="geometry" />
        </mxCell>
        <mxCell id="byp8TM0r94PkajCjEqZ4-32" value="11: exibirPagamentoSucesso()" style="text;html=1;align=center;verticalAlign=middle;resizable=0;points=[];autosize=1;strokeColor=none;fillColor=none;fontStyle=1" vertex="1" parent="1">
          <mxGeometry x="1595.0033333333336" y="806" width="190" height="30" as="geometry" />
        </mxCell>
        <mxCell id="byp8TM0r94PkajCjEqZ4-37" style="edgeStyle=orthogonalEdgeStyle;rounded=0;orthogonalLoop=1;jettySize=auto;html=1;curved=0;dashed=1;exitX=0;exitY=1;exitDx=0;exitDy=-5;exitPerimeter=0;fontStyle=1" edge="1" parent="1">
          <mxGeometry relative="1" as="geometry">
            <mxPoint x="1583.9615384615386" y="931" as="targetPoint" />
            <Array as="points">
              <mxPoint x="1635" y="931" />
              <mxPoint x="1635" y="931" />
            </Array>
            <mxPoint x="1790" y="931" as="sourcePoint" />
          </mxGeometry>
        </mxCell>
        <mxCell id="byp8TM0r94PkajCjEqZ4-38" value="12: exibirPassagem(passagem)" style="text;html=1;align=center;verticalAlign=middle;resizable=0;points=[];autosize=1;strokeColor=none;fillColor=none;fontStyle=1;strokeWidth=2;" vertex="1" parent="1">
          <mxGeometry x="1590.3333333333335" y="906" width="190" height="30" as="geometry" />
        </mxCell>
        <mxCell id="byp8TM0r94PkajCjEqZ4-39" value="" style="endArrow=none;dashed=1;html=1;rounded=0;entryX=1;entryY=0.339;entryDx=0;entryDy=0;entryPerimeter=0;exitX=0.001;exitY=0.347;exitDx=0;exitDy=0;exitPerimeter=0;dashPattern=8 8;fontStyle=1" edge="1" parent="1" source="byp8TM0r94PkajCjEqZ4-22" target="byp8TM0r94PkajCjEqZ4-22">
          <mxGeometry width="50" height="50" relative="1" as="geometry">
            <mxPoint x="1521.81" y="717.6399999999996" as="sourcePoint" />
            <mxPoint x="2260.33" y="715.9999999999998" as="targetPoint" />
          </mxGeometry>
        </mxCell>
        <mxCell id="byp8TM0r94PkajCjEqZ4-40" style="edgeStyle=orthogonalEdgeStyle;rounded=0;orthogonalLoop=1;jettySize=auto;html=1;curved=0;dashed=1;fontStyle=1;strokeWidth=2;" edge="1" parent="1">
          <mxGeometry relative="1" as="geometry">
            <Array as="points">
              <mxPoint x="1685" y="836" />
              <mxPoint x="1685" y="836" />
            </Array>
            <mxPoint x="1583.9615384615386" y="836.0769230769231" as="targetPoint" />
            <mxPoint x="1790" y="836" as="sourcePoint" />
          </mxGeometry>
        </mxCell>
        <mxCell id="byp8TM0r94PkajCjEqZ4-41" value="[Pagamento com Sucesso]" style="text;html=1;align=center;verticalAlign=middle;resizable=0;points=[];autosize=1;strokeColor=none;fillColor=none;fontStyle=1" vertex="1" parent="1">
          <mxGeometry x="1420" y="766" width="170" height="30" as="geometry" />
        </mxCell>
        <mxCell id="byp8TM0r94PkajCjEqZ4-42" value="[Erro no Pagamento]" style="text;html=1;align=center;verticalAlign=middle;resizable=0;points=[];autosize=1;strokeColor=none;fillColor=none;fontStyle=1" vertex="1" parent="1">
          <mxGeometry x="1440" y="646" width="130" height="30" as="geometry" />
        </mxCell>
        <mxCell id="byp8TM0r94PkajCjEqZ4-45" value="" style="html=1;points=[[0,0,0,0,5],[0,1,0,0,-5],[1,0,0,0,5],[1,1,0,0,-5]];perimeter=orthogonalPerimeter;outlineConnect=0;targetShapes=umlLifeline;portConstraint=eastwest;newEdgeStyle={&quot;curved&quot;:0,&quot;rounded&quot;:0};fontStyle=1;strokeWidth=2;" vertex="1" parent="1">
          <mxGeometry x="2010" y="486" width="10" height="45" as="geometry" />
        </mxCell>
        <mxCell id="byp8TM0r94PkajCjEqZ4-12" style="edgeStyle=orthogonalEdgeStyle;rounded=0;orthogonalLoop=1;jettySize=auto;html=1;curved=0;endArrow=block;endFill=1;entryX=0.55;entryY=0.286;entryDx=0;entryDy=0;entryPerimeter=0;fontStyle=1;strokeWidth=2;" edge="1" parent="1">
          <mxGeometry relative="1" as="geometry">
            <Array as="points" />
            <mxPoint x="1800" y="485.5" as="sourcePoint" />
            <mxPoint x="2014.67" y="485.79999999999995" as="targetPoint" />
          </mxGeometry>
        </mxCell>
        <mxCell id="byp8TM0r94PkajCjEqZ4-13" value="7: gerarCobrançaPix(valor)" style="edgeLabel;html=1;align=center;verticalAlign=middle;resizable=0;points=[];fontStyle=1" connectable="0" vertex="1" parent="byp8TM0r94PkajCjEqZ4-12">
          <mxGeometry x="-0.0149" relative="1" as="geometry">
            <mxPoint y="-9" as="offset" />
          </mxGeometry>
        </mxCell>
        <mxCell id="byp8TM0r94PkajCjEqZ4-6" style="edgeStyle=orthogonalEdgeStyle;rounded=0;orthogonalLoop=1;jettySize=auto;html=1;curved=0;endArrow=block;endFill=1;entryX=0.55;entryY=0.286;entryDx=0;entryDy=0;entryPerimeter=0;fontStyle=1;strokeWidth=2;" edge="1" parent="1">
          <mxGeometry relative="1" as="geometry">
            <Array as="points" />
            <mxPoint x="1800.33" y="398" as="sourcePoint" />
            <mxPoint x="2015" y="398.29999999999995" as="targetPoint" />
          </mxGeometry>
        </mxCell>
        <mxCell id="byp8TM0r94PkajCjEqZ4-7" value="5: processarPagamento(dados, valor)" style="edgeLabel;html=1;align=center;verticalAlign=middle;resizable=0;points=[];fontStyle=1" connectable="0" vertex="1" parent="byp8TM0r94PkajCjEqZ4-6">
          <mxGeometry x="-0.0149" relative="1" as="geometry">
            <mxPoint y="-9" as="offset" />
          </mxGeometry>
        </mxCell>
        <mxCell id="KLUDcfQme7VjofMpqBZG-7" style="edgeStyle=orthogonalEdgeStyle;rounded=0;orthogonalLoop=1;jettySize=auto;html=1;curved=0;dashed=1;endArrow=open;endFill=0;exitX=0;exitY=1;exitDx=0;exitDy=-5;exitPerimeter=0;fontStyle=1;strokeWidth=2;" edge="1" parent="1" source="KLUDcfQme7VjofMpqBZG-9">
          <mxGeometry relative="1" as="geometry">
            <Array as="points">
              <mxPoint x="1590" y="305" />
              <mxPoint x="1590" y="305" />
            </Array>
            <mxPoint x="1792" y="318" as="sourcePoint" />
            <mxPoint x="1590" y="305" as="targetPoint" />
          </mxGeometry>
        </mxCell>
        <mxCell id="KLUDcfQme7VjofMpqBZG-8" value="2: exibirResumoDaCompra(valor)" style="edgeLabel;html=1;align=center;verticalAlign=middle;resizable=0;points=[];fontStyle=1" connectable="0" vertex="1" parent="KLUDcfQme7VjofMpqBZG-7">
          <mxGeometry x="0.0547" y="-1" relative="1" as="geometry">
            <mxPoint x="6" y="-8" as="offset" />
          </mxGeometry>
        </mxCell>
        <mxCell id="byp8TM0r94PkajCjEqZ4-46" style="edgeStyle=orthogonalEdgeStyle;rounded=0;orthogonalLoop=1;jettySize=auto;html=1;curved=0;endArrow=block;endFill=1;fontStyle=1;strokeWidth=2;" edge="1" parent="1" target="CXJ0yseSsIXUuxaVNN-k-1">
          <mxGeometry relative="1" as="geometry">
            <Array as="points">
              <mxPoint x="1688" y="339" />
            </Array>
            <mxPoint x="1585.33" y="338" as="sourcePoint" />
            <mxPoint x="1790" y="333" as="targetPoint" />
          </mxGeometry>
        </mxCell>
        <mxCell id="byp8TM0r94PkajCjEqZ4-47" value="3: selecionarFormaPagamento(metodo)" style="edgeLabel;html=1;align=center;verticalAlign=middle;resizable=0;points=[];fontStyle=1" connectable="0" vertex="1" parent="byp8TM0r94PkajCjEqZ4-46">
          <mxGeometry x="-0.0149" relative="1" as="geometry">
            <mxPoint y="-12" as="offset" />
          </mxGeometry>
        </mxCell>
        <mxCell id="CXJ0yseSsIXUuxaVNN-k-1" value="" style="html=1;points=[[0,0,0,0,5],[0,1,0,0,-5],[1,0,0,0,5],[1,1,0,0,-5]];perimeter=orthogonalPerimeter;outlineConnect=0;targetShapes=umlLifeline;portConstraint=eastwest;newEdgeStyle={&quot;curved&quot;:0,&quot;rounded&quot;:0};fontStyle=1;strokeWidth=2;" vertex="1" parent="1">
          <mxGeometry x="1790" y="331" width="10" height="239" as="geometry" />
        </mxCell>
        <mxCell id="KLUDcfQme7VjofMpqBZG-15" value="alt" style="shape=umlFrame;whiteSpace=wrap;html=1;pointerEvents=0;width=60;height=20;fontStyle=1;strokeWidth=2;" vertex="1" parent="1">
          <mxGeometry x="1490" y="355" width="580" height="205" as="geometry" />
        </mxCell>
        <mxCell id="KLUDcfQme7VjofMpqBZG-16" value="" style="endArrow=none;dashed=1;html=1;rounded=0;exitX=0.004;exitY=0.367;exitDx=0;exitDy=0;exitPerimeter=0;dashPattern=8 8;fontStyle=1" edge="1" parent="1">
          <mxGeometry width="50" height="50" relative="1" as="geometry">
            <mxPoint x="1492.44" y="460.1199999999999" as="sourcePoint" />
            <mxPoint x="2070" y="460" as="targetPoint" />
          </mxGeometry>
        </mxCell>
        <mxCell id="CXJ0yseSsIXUuxaVNN-k-2" value="" style="html=1;points=[[0,0,0,0,5],[0,1,0,0,-5],[1,0,0,0,5],[1,1,0,0,-5]];perimeter=orthogonalPerimeter;outlineConnect=0;targetShapes=umlLifeline;portConstraint=eastwest;newEdgeStyle={&quot;curved&quot;:0,&quot;rounded&quot;:0};fontStyle=1;strokeWidth=2;" vertex="1" parent="1">
          <mxGeometry x="1790" y="588" width="10" height="372" as="geometry" />
        </mxCell>
      </root>
    </mxGraphModel>
  </diagram>
</mxfile>
